<?xml version="1.0" encoding="utf-8"?>
<!-- Generator: Adobe Illustrator 22.0.1, SVG Export Plug-In . SVG Version: 6.00 Build 0)  -->
<svg version="1.1" id="Ebene_1" xmlns="http://www.w3.org/2000/svg" xmlns:xlink="http://www.w3.org/1999/xlink" x="0px" y="0px"
	 width="16px" height="16px" viewBox="0 0 16 16" style="enable-background:new 0 0 16 16;" xml:space="preserve">
<style type="text/css">
	.st0{fill:#848484;}
</style>
<path class="st0" d="M14.1,3.9l-1.7-1.7c-0.5-0.5-1.2-0.5-1.7,0L3.5,9.5C3.3,9.6,3.2,9.8,3.2,10l-1,3.5c-0.1,0.2,0,0.4,0.1,0.5
	c0.1,0.1,0.2,0.2,0.4,0.2c0,0,0.1,0,0.1,0l3.5-1c0.2-0.1,0.4-0.2,0.5-0.3l7.3-7.3c0.2-0.2,0.3-0.5,0.3-0.8S14.3,4.1,14.1,3.9z
	 M3.4,12.9L4,10.7l1.5,1.5L3.4,12.9z M13.4,4.8l-2.1,2.1l-4.9,4.9L4.5,9.8l5-5l1.9-1.9c0,0,0.1-0.1,0.1-0.1c0.1,0,0.1,0,0.1,0.1
	l1.7,1.7c0,0.1,0.1,0.1,0.1,0.1S13.4,4.8,13.4,4.8z"/>
</svg>
