<?xml version="1.0" encoding="utf-8"?>
<!-- Generator: Adobe Illustrator 15.0.0, SVG Export Plug-In . SVG Version: 6.00 Build 0)  -->
<!DOCTYPE svg PUBLIC "-//W3C//DTD SVG 1.1//EN" "http://www.w3.org/Graphics/SVG/1.1/DTD/svg11.dtd">
<svg version="1.1" id="Ebene_1" xmlns="http://www.w3.org/2000/svg" xmlns:xlink="http://www.w3.org/1999/xlink" x="0px" y="0px"
	 width="43.201px" height="26.471px" viewBox="0 0 43.201 26.471" enable-background="new 0 0 43.201 26.471" xml:space="preserve">
<g>
	<path fill="#848484" d="M21.6,18.127c-2.697,0-4.893-2.193-4.893-4.892c0-2.697,2.192-4.893,4.893-4.893
		c2.695,0,4.89,2.195,4.89,4.893C26.49,15.934,24.297,18.127,21.6,18.127L21.6,18.127z M21.6,5.482
		c-4.275,0-7.754,3.479-7.754,7.754c0,4.274,3.479,7.754,7.754,7.754c4.273,0,7.753-3.479,7.753-7.754
		C29.354,8.959,25.875,5.482,21.6,5.482L21.6,5.482z M21.6,23.607c-8.417,0-15.729-7.787-17.963-10.426
		C5.872,10.563,13.166,2.863,21.6,2.863c8.414,0,15.722,7.703,17.962,10.32C37.332,15.822,30.035,23.607,21.6,23.607L21.6,23.607z
		 M42.553,12.315C42.17,11.813,33.121,0,21.6,0S1.029,11.812,0.646,12.314L0,13.172l0.645,0.861
		c0.379,0.51,9.43,12.438,20.956,12.438c11.522,0,20.577-11.93,20.956-12.438l0.645-0.861L42.553,12.315z"/>
</g>
</svg>
