<?xml version="1.0" encoding="utf-8"?>
<!-- Generator: Adobe Illustrator 15.0.0, SVG Export Plug-In . SVG Version: 6.00 Build 0)  -->
<!DOCTYPE svg PUBLIC "-//W3C//DTD SVG 1.1//EN" "http://www.w3.org/Graphics/SVG/1.1/DTD/svg11.dtd">
<svg version="1.1" id="Ebene_1" xmlns="http://www.w3.org/2000/svg" xmlns:xlink="http://www.w3.org/1999/xlink" x="0px" y="0px"
	 width="16px" height="16px" viewBox="0 0 16 16" enable-background="new 0 0 16 16" xml:space="preserve">
<g>
	<path fill="none" stroke="#848484" stroke-width="1.5" stroke-miterlimit="10" d="M19.934,2.849"/>
	<path fill="none" stroke="#848484" stroke-width="1.5" stroke-miterlimit="10" d="M11.389,11.395"/>
</g>
<path fill="#848484" d="M7.039,1.096L6.558,2.773c-0.436,0.12-0.851,0.291-1.235,0.51l-1.52-0.843L2.44,3.803l0.843,1.519
	c-0.219,0.385-0.39,0.8-0.51,1.236L1.096,7.039v1.922l1.677,0.48c0.12,0.436,0.291,0.852,0.51,1.236l-0.843,1.52l1.363,1.363
	l1.52-0.844c0.385,0.219,0.8,0.391,1.235,0.51l0.481,1.677h1.922l0.48-1.677c0.437-0.119,0.852-0.291,1.236-0.51l1.52,0.844
	l1.363-1.363l-0.844-1.52c0.219-0.385,0.391-0.801,0.51-1.236l1.677-0.48V7.039l-1.677-0.481c-0.119-0.436-0.291-0.851-0.51-1.236
	l0.844-1.519l-1.363-1.364l-1.52,0.843c-0.385-0.219-0.8-0.39-1.236-0.51l-0.48-1.677H7.039z M8,5.803
	c1.213,0,2.197,0.984,2.197,2.197c0,1.213-0.984,2.197-2.197,2.197S5.803,9.213,5.803,8C5.803,6.787,6.787,5.803,8,5.803z"/>
</svg>
