<?xml version="1.0" encoding="utf-8"?>
<!-- Generator: Adobe Illustrator 15.0.0, SVG Export Plug-In . SVG Version: 6.00 Build 0)  -->
<!DOCTYPE svg PUBLIC "-//W3C//DTD SVG 1.1//EN" "http://www.w3.org/Graphics/SVG/1.1/DTD/svg11.dtd">
<svg version="1.1" id="Ebene_1" xmlns="http://www.w3.org/2000/svg" xmlns:xlink="http://www.w3.org/1999/xlink" x="0px" y="0px"
	 width="467px" height="263.819px" viewBox="-32 -24.257 467 263.819" enable-background="new -32 -24.257 467 263.819"
	 xml:space="preserve">
<g>
	<rect x="187.378" y="155.74" fill="#8E8F8E" width="25.244" height="26.854"/>
	<path fill="#8E8F8E" d="M246.139,93.384c-2.472,5.408-5.283,9.598-8.434,12.567c-3.152,2.975-9.812,8.182-19.98,15.628
		c-2.865,2.078-4.688,4.103-5.479,6.069c-0.789,1.971-1.219,6.248-1.289,12.836H190.01v-14.502c0-4.868,0.983-8.7,2.954-11.493
		c1.97-2.791,6.284-6.766,12.944-11.922c10.168-7.805,15.254-16.076,15.254-24.813c0-6.588-1.987-11.816-5.962-15.685
		c-3.976-3.868-9.149-5.801-15.522-5.801c-14.754,0-23.454,10.205-26.104,30.615l-23.418-4.189
		c1.432-15.254,7.071-27.23,16.919-35.933c9.846-8.701,21.646-13.052,35.396-13.052c13.678,0,24.992,4.064,33.945,12.191
		c8.951,8.129,13.428,18.245,13.428,30.348C249.844,82.265,248.607,87.977,246.139,93.384z"/>
</g>
<rect x="-22" y="-14.257" fill="none" stroke="#8E8F8E" stroke-width="20" stroke-miterlimit="10" width="447" height="243.819"/>
</svg>
