<?xml version="1.0" encoding="utf-8"?>
<!-- Generator: Adobe Illustrator 21.1.0, SVG Export Plug-In . SVG Version: 6.00 Build 0)  -->
<svg version="1.1" id="Ebene_1" xmlns="http://www.w3.org/2000/svg" xmlns:xlink="http://www.w3.org/1999/xlink" x="0px" y="0px"
	 viewBox="0 0 23 11" style="enable-background:new 0 0 23 11;" xml:space="preserve">
<style type="text/css">
	.st0{fill:#8E8F8E;}
</style>
<path class="st0" d="M0,11h4.8V9.8H0V11z M6.1,11h4.8V9.8H6.1V11z M12.1,11h4.8V9.8h-4.8V11z M18.2,11H23V9.8h-4.8V11z"/>
<path class="st0" d="M0,8.6h4.8V7.3H0V8.6z M6.1,8.6h4.8V7.3H6.1V8.6z M12.1,8.6h4.8V7.3h-4.8V8.6z M18.2,8.6H23V7.3h-4.8V8.6z"/>
<path class="st0" d="M0,6.1h4.8V4.9H0V6.1z M6.1,6.1h4.8V4.9H6.1V6.1z M12.1,6.1h4.8V4.9h-4.8V6.1z M18.2,6.1H23V4.9h-4.8V6.1z"/>
<path class="st0" d="M0,3.7h4.8V2.4H0V3.7z M6.1,3.7h4.8V2.4H6.1V3.7z M12.1,3.7h4.8V2.4h-4.8V3.7z M18.2,3.7H23V2.4h-4.8V3.7z"/>
<path class="st0" d="M0,1.2h4.8V0H0V1.2z M6.1,1.2h4.8V0H6.1V1.2z M12.1,1.2h4.8V0h-4.8V1.2z M18.2,1.2H23V0h-4.8V1.2z"/>
</svg>
