<?xml version="1.0" encoding="utf-8"?>
<!-- Generator: Adobe Illustrator 21.1.0, SVG Export Plug-In . SVG Version: 6.00 Build 0)  -->
<svg version="1.1" id="Ebene_1" xmlns="http://www.w3.org/2000/svg" xmlns:xlink="http://www.w3.org/1999/xlink" x="0px" y="0px"
	 viewBox="0 0 23 11" style="enable-background:new 0 0 23 11;" xml:space="preserve">
<style type="text/css">
	.st0{fill:#8E8F8E;}
</style>
<path class="st0" d="M6.1,1.2h4.8V0H6.1V1.2z M12.1,1.2H23V0H12.1V1.2z"/>
<rect class="st0" width="4.8" height="1.2"/>
<path class="st0" d="M6.1,3.7h4.8V2.4H6.1V3.7z M12.1,3.7H23V2.4H12.1V3.7z"/>
<rect y="2.4" class="st0" width="4.8" height="1.3"/>
<path class="st0" d="M6.1,6.1h4.8V4.9H6.1V6.1z M12.1,6.1H23V4.9H12.1V6.1z"/>
<rect y="4.9" class="st0" width="4.8" height="1.2"/>
<path class="st0" d="M6.1,8.6h4.8V7.3H6.1V8.6z M12.1,8.6H23V7.3H12.1V8.6z"/>
<rect y="7.3" class="st0" width="4.8" height="1.2"/>
<path class="st0" d="M6.1,11h4.8V9.8H6.1V11z M12.1,11H23V9.8H12.1V11z"/>
<rect y="9.8" class="st0" width="4.8" height="1.2"/>
</svg>
