<?xml version="1.0" encoding="utf-8"?>
<!-- Generator: Adobe Illustrator 21.1.0, SVG Export Plug-In . SVG Version: 6.00 Build 0)  -->
<svg version="1.1" id="Ebene_1" xmlns="http://www.w3.org/2000/svg" xmlns:xlink="http://www.w3.org/1999/xlink" x="0px" y="0px"
	 viewBox="0 0 23 11" style="enable-background:new 0 0 23 11;" xml:space="preserve">
<style type="text/css">
	.st0{fill:#8E8F8E;}
</style>
<path class="st0" d="M0,11h10.9V9.8H0V11z M12.1,11h4.8V9.8h-4.8V11z"/>
<rect x="18.2" y="9.8" class="st0" width="4.8" height="1.2"/>
<path class="st0" d="M0,8.6h10.9V7.3H0V8.6z M12.1,8.6h4.8V7.3h-4.8V8.6z"/>
<rect x="18.2" y="7.3" class="st0" width="4.8" height="1.2"/>
<path class="st0" d="M0,6.1h10.9V4.9H0V6.1z M12.1,6.1h4.8V4.9h-4.8V6.1z"/>
<rect x="18.2" y="4.9" class="st0" width="4.8" height="1.2"/>
<path class="st0" d="M0,3.7h10.9V2.4H0V3.7z M12.1,3.7h4.8V2.4h-4.8V3.7z"/>
<rect x="18.2" y="2.4" class="st0" width="4.8" height="1.3"/>
<path class="st0" d="M0,1.2h10.9V0H0V1.2z M12.1,1.2h4.8V0h-4.8V1.2z"/>
<rect x="18.2" class="st0" width="4.8" height="1.2"/>
</svg>
