<?xml version="1.0" encoding="utf-8"?>
<!-- Generator: Adobe Illustrator 21.1.0, SVG Export Plug-In . SVG Version: 6.00 Build 0)  -->
<svg version="1.1" id="Ebene_1" xmlns="http://www.w3.org/2000/svg" xmlns:xlink="http://www.w3.org/1999/xlink" x="0px" y="0px"
	 viewBox="0 0 23 11" style="enable-background:new 0 0 23 11;" xml:space="preserve">
<style type="text/css">
	.st0{fill:#8E8F8E;}
</style>
<path class="st0" d="M0,11h6.8V9.8H0V11z M8.1,11h6.8V9.8H8.1V11z M16.2,11H23V9.8h-6.8V11z"/>
<path class="st0" d="M0,9.1h6.8V7.8H0V9.1z M8.1,9.1h6.8V7.8H8.1V9.1z M16.2,9.1H23V7.8h-6.8V9.1z"/>
<path class="st0" d="M0,7.1h6.8V5.8H0V7.1z M8.1,7.1h6.8V5.8H8.1V7.1z M16.2,7.1H23V5.8h-6.8V7.1z"/>
<path class="st0" d="M0,5.2h6.8V3.9H0V5.2z M8.1,5.2h6.8V3.9H8.1V5.2z M16.2,5.2H23V3.9h-6.8V5.2z"/>
<path class="st0" d="M0,3.2h6.8V1.9H0V3.2z M8.1,3.2h6.8V1.9H8.1V3.2z M16.2,3.2H23V1.9h-6.8V3.2z"/>
<path class="st0" d="M0,1.2h6.8V0H0V1.2z M8.1,1.2h6.8V0H8.1V1.2z M16.2,1.2H23V0h-6.8V1.2z"/>
</svg>
